<svg width="156" height="131" viewBox="0 0 156 131" fill="none" xmlns="http://www.w3.org/2000/svg">
<path d="M97.9857 112.028C98.1024 111.911 98.2165 111.791 98.3394 111.677C98.4475 111.572 98.5327 111.446 98.5898 111.306C98.6469 111.166 98.6745 111.015 98.6709 110.864C98.678 109.996 98.6709 109.126 98.6709 108.258C98.6746 108.054 98.6367 107.852 98.5596 107.664C98.4825 107.475 98.3678 107.305 98.2226 107.163C98.1546 107.095 98.0874 107.026 98.0246 106.964V104.357C98.3623 104.293 98.6435 104.457 98.9264 104.563C99.4181 104.746 99.8577 105.048 100.207 105.441C100.612 105.895 100.92 106.428 101.111 107.007C101.167 107.165 101.204 107.33 101.222 107.497C101.286 108.021 101.316 108.549 101.31 109.077C101.292 109.6 101.31 110.125 101.304 110.648C101.298 110.983 101.237 111.315 101.206 111.647C101.178 111.954 101.034 112.263 100.888 112.542C100.611 113.069 100.279 113.549 99.7682 113.898C99.5109 114.076 99.2686 114.271 98.9892 114.412C98.7098 114.554 98.3853 114.615 98.0768 114.694C97.5578 114.828 97.0299 114.766 96.5056 114.774C95.9813 114.782 95.4623 114.755 94.9424 114.783C94.5613 114.804 94.1971 114.71 93.8239 114.686C93.6345 114.66 93.4508 114.602 93.2802 114.515C92.7435 114.284 92.2192 114.006 91.8222 113.56C91.4251 113.132 91.1263 112.622 90.9469 112.065C90.8233 111.688 90.7597 111.295 90.7585 110.898C90.7774 109.974 90.7774 109.05 90.7585 108.126C90.7417 107.31 91.0141 106.589 91.4562 105.935C91.8531 105.348 92.3536 104.86 93.0291 104.587C93.2943 104.481 93.5454 104.357 93.8345 104.341C93.8673 104.341 93.8973 104.296 93.9345 104.267L94.0565 104.384C94.0565 105.101 94.0706 105.831 94.0494 106.559C94.0513 106.69 94.0256 106.82 93.974 106.941C93.9223 107.061 93.8459 107.169 93.7497 107.258C93.4234 107.54 93.3076 107.897 93.3129 108.319C93.3217 109.092 93.3129 109.864 93.3129 110.637C93.3225 110.949 93.4078 111.254 93.5613 111.525C93.7735 111.887 94.0803 112.069 94.5092 112.14C95.1281 112.245 95.747 112.191 96.3659 112.206C96.9008 112.219 97.4428 112.267 97.9857 112.028Z" fill="url(#paint0_linear_148_510)"/>
<path d="M93.6931 94.1706C93.6551 94.3484 93.6489 94.5012 93.5906 94.6275C93.496 94.8346 93.5145 95.0452 93.5136 95.2577C93.5136 95.9065 93.526 96.5554 93.5075 97.2025C93.5105 97.4557 93.5425 97.7077 93.6029 97.9536C93.639 98.0778 93.7042 98.1914 93.793 98.2851C93.9062 98.4229 94.0415 98.5411 94.1723 98.6726C94.1723 98.8335 94.1723 98.998 94.1723 99.1633C94.1626 99.5002 94.3492 99.8344 94.2466 100.16C94.1211 100.551 94.2148 100.94 94.1582 101.354C93.9952 101.366 93.8316 101.344 93.6772 101.29C92.8567 101.042 92.1679 100.458 91.7692 99.9215C91.469 99.5185 91.244 99.064 91.1052 98.5802C91.0353 98.3411 90.9558 98.11 90.9566 97.8558C90.9566 96.7669 90.9451 95.6763 90.9637 94.5875C90.9735 94.0795 91.1081 93.5818 91.3554 93.1386C91.6379 92.5806 92.046 92.0965 92.5473 91.725C93.0486 91.3534 93.6293 91.1046 94.2431 90.9983C94.463 90.9534 94.6871 90.932 94.9115 90.9343C95.8036 90.928 96.6957 90.9396 97.587 90.9343C98.4221 90.9247 99.236 91.1984 99.8973 91.7111C100.64 92.2764 101.206 93.0142 101.335 93.999C101.463 94.1653 101.392 94.3617 101.423 94.543C101.564 95.4665 101.512 96.3972 101.49 97.3225C101.476 97.8273 101.447 98.3473 101.258 98.8335C101.111 99.2175 100.919 99.583 100.688 99.9224C100.285 100.509 99.709 100.855 99.1033 101.167C98.8381 101.305 98.556 101.417 98.2086 101.345V100.456C98.2086 99.9873 98.2147 99.5179 98.2086 99.0495C98.2001 98.9567 98.2143 98.8631 98.2499 98.777C98.2855 98.6909 98.3414 98.6148 98.4128 98.5553C98.64 98.3775 98.7054 98.0967 98.8416 97.862C98.884 97.7891 98.869 97.6789 98.869 97.5856C98.869 96.6887 98.8796 95.7919 98.869 94.8959C98.8611 94.351 98.6418 93.9137 98.1343 93.6604C97.9101 93.5571 97.6664 93.5037 97.4199 93.5039C96.6109 93.4808 95.801 93.4782 94.992 93.5039C94.5844 93.5155 94.1962 93.6435 93.9097 93.9706C93.8414 94.0413 93.769 94.1081 93.6931 94.1706Z" fill="url(#paint1_linear_148_510)"/>
<path d="M94.9098 96.0434C94.9531 95.9557 95.0037 95.8718 95.061 95.7927C95.1188 95.7203 95.1924 95.6622 95.2761 95.6229C95.3598 95.5836 95.4514 95.5641 95.5437 95.566C96.0512 95.5723 96.5596 95.566 97.0671 95.566C97.4518 95.7038 97.5455 96.0105 97.5455 96.3802C97.5455 100.699 97.5455 105.018 97.5455 109.336C97.5543 109.5 97.5159 109.662 97.435 109.804C97.354 109.946 97.234 110.061 97.0892 110.136C96.6012 110.136 96.1069 110.136 95.6136 110.136C95.1582 110.136 94.9062 109.885 94.9062 109.425C94.9062 105.176 94.9062 100.926 94.9062 96.6762L94.9098 96.0434Z" fill="url(#paint2_linear_148_510)"/>
<path d="M20.1784 110.456H9.97869L8.3253 114.652H2L12.1325 90.9297H18.4614L28.3587 114.653H21.7938L20.1784 110.456ZM18.3606 105.718L15.1334 97.2574L11.8345 105.718H18.3606Z" fill="url(#paint3_linear_148_510)"/>
<path d="M48.1156 90.9297L48.082 95.8708H36.6365V101.152H47.2067V106.093H36.6365V114.655H30.4766V90.9297H48.1156Z" fill="url(#paint4_linear_148_510)"/>
<path d="M68.5531 90.9297L68.5195 95.8708H57.074V101.152H67.6442V106.093H57.074V114.655H50.9141V90.9297H68.5531Z" fill="url(#paint5_linear_148_510)"/>
<path d="M77.5037 90.9297V109.373H87.5018V114.653H71.3438V90.9297H77.5037Z" fill="url(#paint6_linear_148_510)"/>
<path d="M112.139 90.9297L122.844 105.211V90.9297H128.566V114.653H123.182L112.476 100.44V114.654H106.719V90.9297H112.139Z" fill="url(#paint7_linear_148_510)"/>
<path d="M148.79 102.536H154.11V111.877C151.584 113.636 147.579 114.923 144.28 114.923C137.076 114.923 131.656 109.711 131.656 102.808C131.656 95.9038 137.211 90.76 144.684 90.76C148.22 90.76 151.955 92.1137 154.379 94.2799L150.878 98.6113C149.198 97.0211 146.805 96.0051 144.65 96.0051C140.848 96.0051 137.985 98.9499 137.985 102.808C137.985 106.699 140.88 109.644 144.718 109.644C145.896 109.644 147.377 109.238 148.79 108.526V102.536Z" fill="url(#paint8_linear_148_510)"/>
<path d="M122.154 39.2306H122.148C122.144 39.2211 122.141 39.2113 122.139 39.2013C122.112 39.1124 122.085 39.0235 122.059 38.9346L120.665 34.6192V34.6103L120.057 32.734L120.052 32.7144L118.569 28.1359L118.559 28.1075L117.757 25.6187L117.746 25.5858H94.3085L94.2254 25.328L90.7179 14.4636L87.7498 5.29502L86.9894 2.94312H69.8959L69.1806 5.29502L66.392 14.4636L63.0091 25.5876H38.9537L38.3295 27.6435L38.1872 28.1101L36.9166 32.2878L36.784 32.71L36.3339 34.1908L36.2075 34.6059L34.9272 38.8244L34.8035 39.2306L34.1562 41.3567L34.7274 41.7585L36.3843 42.9247L44.2702 48.4765L52.7811 54.4665L53.9686 55.3011L50.4947 66.7353L48.0836 74.6639L47.8997 75.2692L47.1287 77.7927L46.9837 78.2718L47.1605 78.3971L47.3206 78.5109L48.241 79.1588H48.2498C48.5548 79.3544 48.8608 79.5446 49.1649 79.733L49.1481 79.7917L51.1676 81.2139L52.8121 82.3694L53.1065 82.5765L54.1728 83.3267L54.7307 83.7187L56.8059 85.1799L56.8748 85.2288H56.8801L58.6776 86.4937L58.9889 86.7132L59.6016 86.2812L61.5768 84.892L61.8421 84.7062L68.9384 79.7117L78.7968 72.7724L96.4296 85.1853L96.7232 85.3906L98.289 86.4928L98.3836 86.475L99.4729 85.7159L100.518 84.9862C101.511 84.2946 102.477 83.6209 103.416 82.9649C103.79 82.7045 104.162 82.4467 104.53 82.1881C104.699 82.0716 104.868 81.9543 105.035 81.837L106.185 81.037L108.972 79.1082C109.385 78.8202 109.799 78.5313 110.216 78.2415L111.077 77.6416C110.824 76.8955 110.577 76.1519 110.336 75.4105C110.311 75.3368 110.287 75.2639 110.264 75.1901C109.723 73.5191 109.212 71.8599 108.73 70.2125L107.867 67.546C107.368 66.0971 106.848 64.6572 106.459 63.1861L105.207 59.3134V59.3089C105.042 58.853 104.888 58.3943 104.765 57.9286L103.868 55.1535L104.523 54.6922L113.207 48.5796L120.866 43.1896L122.882 41.7674L122.961 41.7132L122.154 39.2306ZM115.988 28.1066L116.475 29.6105L117.477 32.7126L117.647 33.2379L117.96 34.2068L117.388 34.6086L110.822 39.2306L110.299 39.5986L107.231 41.7585L100.962 46.1717L99.5357 41.7585L99.4765 41.5754L99.5737 41.507L102.807 39.2306L108.814 35.0014L108.686 34.6086L108.509 34.0708L108.13 32.8877L107.969 32.7153H77.6624L78.6491 29.4692L79.0629 28.1093L115.988 28.1066ZM91.4253 60.82L89.9452 56.2397L89.3351 54.3545L87.8497 49.7573L87.0372 47.2436L85.3245 41.9309L85.2697 41.7585H90.099L90.9761 44.4713L91.7887 46.9868L93.2741 51.5812L93.8841 53.4665L95.3651 58.0477L96.1732 60.5525L97.0035 63.1221L97.2386 63.8474L98.1449 66.6642L97.1007 65.9291L92.8196 62.9159L91.8877 62.2599L91.4253 60.82ZM70.9799 67.2766L66.1081 70.7058L67.827 65.0572L69.1532 62.9186L73.147 60.1071L74.7915 58.9516L78.7985 56.1304L80.9921 54.5856L85.5686 51.3652L85.6959 51.2764L87.1813 55.87L84.9992 57.4059L82.81 58.949L79.8701 61.0182L79.856 61.0289L78.8189 61.7826L78.8021 61.7702L77.1575 62.9257L73.1638 65.7371L73.1417 65.7211L70.956 67.2589L70.9799 67.2766ZM72.8366 48.552C72.9082 48.3307 72.9781 48.1076 73.0488 47.8952L74.9144 41.7621H82.6261L82.6897 41.9594L82.7225 42.0598L84.8825 48.76L80.0196 52.1866L78.8038 53.0425L75.8861 50.9902L72.7694 48.7982L72.841 48.5627C72.8379 48.5596 72.8352 48.556 72.8331 48.552H72.8366ZM74.4697 34.6086L73.0639 39.2306L72.2946 41.7585L70.7359 46.881L70.6156 47.2774L67.7925 45.2899L66.6687 44.4997L66.5697 44.4304C66.8644 43.5415 67.1576 42.6509 67.4494 41.7585C67.6775 41.067 67.9054 40.3752 68.1329 39.683L68.2717 39.2306H68.2832C68.7907 37.6899 69.2985 36.1492 69.8066 34.6086C70.0135 33.9775 70.2213 33.3446 70.4299 32.71C70.9339 31.1788 71.4399 29.6434 71.948 28.1039C72.2239 27.2648 72.5006 26.4252 72.7783 25.5849L75.0072 18.8198L77.2238 25.5378L77.2097 25.5849L76.4431 28.1039L75.0426 32.71L74.4697 34.6086ZM69.8393 49.8204L71.9976 51.3386L76.1292 54.2443L76.6138 54.5856L74.4113 56.1348L72.8879 57.2077L72.6085 57.405L72.3327 57.2095C72.273 57.1974 72.2164 57.1732 72.1664 57.1384L70.582 55.998L70.216 55.7313L70.2054 55.7233L68.4273 54.4718L64.4804 51.6941L62.8553 50.5502L58.896 47.7583L56.7298 46.233L50.3727 41.7585H58.3885L60.3098 43.1096L64.2691 45.8961L65.8942 47.0401L69.8393 49.8204ZM75.6801 39.2306L77.0859 34.6086H104.988L98.6639 39.0617L98.4234 39.2306H75.6801ZM85.1159 5.29502L85.5721 6.70475L88.0796 14.4636L91.6746 25.5876H86.8568L86.8303 25.504L83.9709 16.6555L83.3794 14.82L83.3697 14.7924C83.3334 14.6822 83.2963 14.5738 83.2591 14.4636L83.2353 14.3942V14.3853L81.886 10.2077L80.3732 5.52346L80.299 5.29502H85.1159ZM63.4716 32.71L64.8721 28.1039L65.6387 25.5849L67.2169 20.3949L69.0215 14.4609L71.3389 6.8443L71.8101 5.29414H78.314L78.4573 5.73323L80.9249 13.3694L81.2786 14.4627L82.276 17.547L84.8745 25.5867H80.0408L79.9524 25.3076L79.9338 25.2507L78.5846 21.0731L76.4475 14.4609H73.8304L73.8163 14.5053L73.4768 15.6324L73.3097 16.1808L71.9914 20.506L70.4458 25.5876L69.788 27.7502L69.6793 28.1057L68.2796 32.71L67.7023 34.6059L66.8455 37.4262L66.2965 39.2306L65.5273 41.7585L65.0418 43.3584L62.7722 41.7585L61.0817 40.5683L61.2161 40.1239L61.4893 39.2271L62.8951 34.605L63.4716 32.71ZM40.5576 29.207L40.8927 28.1066H62.2426L61.1303 31.7651L60.8421 32.71H39.4913L40.5576 29.207ZM54.1693 79.1082L54.0252 79.5819L53.7599 79.3971L53.2462 79.0353L50.0632 76.7954L50.2339 76.2372L51.4275 72.312L52.6618 68.2642L56.0216 57.2077L56.1357 56.8326L56.6662 57.2077L58.942 58.8076L58.95 58.8139L60.0932 59.6183L57.5424 68.0064L56.6158 71.048L56.3505 71.9316L54.1693 79.1082ZM78.7897 69.6997L76.6049 71.2374L76.6173 71.2454L66.7571 78.1847L63.0366 80.8059L59.7024 83.1525L59.3991 83.3658L55.6494 80.7268L55.7829 80.2886L56.6777 77.3438L58.2435 72.1938L58.8624 70.1681L60.0569 66.242L61.1745 62.5675L61.3513 61.9817L62.4362 58.1917L60.8659 57.0868L56.9075 54.2994L54.7413 52.7723L46.775 47.1619L45.0421 45.9432L39.0961 41.7585L37.1562 40.3932L37.5099 39.2306L37.5868 38.9755L38.5408 35.8423L38.5647 35.7641L38.9184 34.6086H60.2656L58.9164 39.0448L58.8598 39.2306H47.0836L47.0297 39.4084L46.7909 40.1941L46.6557 40.6386L46.4612 41.2768L48.7962 42.9656L48.8351 42.994L52.2568 45.3984L52.2754 45.4117L56.1472 48.1414L58.3125 49.6649L61.3248 51.7857L62.1206 52.3439L62.2762 52.4532L63.9013 53.5981L67.8464 56.3757L70.0047 57.8948L70.9578 58.5659L70.3663 58.9818L69.4821 59.604L66.9605 61.3818H66.9543L65.6643 63.5399L64.957 65.8758L62.7784 73.0524L62.636 73.5226L63.9976 74.5092L65.2169 73.6506L71.429 69.2766L72.628 68.4339L74.8127 66.8962L75.7561 66.2322L78.8021 64.0865L80.4457 62.931L84.4536 60.1098L86.6455 58.5668L87.7949 57.7597L88.4704 59.8503L89.275 62.3391L89.2175 62.3799L88.4492 62.9212L84.4404 65.7398L82.7967 66.8953L78.803 69.7068L78.7897 69.6997ZM101.912 81.3437L98.7736 83.5525L98.6188 83.6609L95.4411 81.4192L81.932 71.9085L81.3715 71.5129L80.986 71.2418L84.9797 68.4313L93.0893 74.1395L96.5128 76.5492L102.613 80.8432L101.912 81.3437ZM106.707 72.0996L106.953 72.8578L108.244 76.8576L108.252 76.8816L104.327 79.6415L104.257 79.6904L104.164 79.6246L101.801 77.9624L95.5437 73.5591L92.1211 71.1503L86.7109 67.3424L86.6225 67.2802L87.1583 66.9033L88.7277 65.7994L90.0787 64.8474L90.6269 64.4616L91.794 65.2829L92.4332 65.7336L93.1777 66.2571L99.1131 70.4347C99.2103 70.4845 99.3085 70.5343 99.4084 70.5823L99.434 70.6605L100.011 71.0667L101.249 70.1539L101.008 69.4063L100.705 68.4722L97.7912 59.4165L96.9822 56.9108L95.5021 52.3305L94.8921 50.4444L93.4067 45.849L92.5941 43.3336L92.1662 42.0101L92.1025 41.8723H92.122L92.0849 41.7585H96.9027L96.9389 41.8723H97.2042C97.3097 42.2332 97.4152 42.5937 97.5207 42.954C97.9787 44.5048 98.4502 46.0532 98.9353 47.5992C99.1334 48.2309 99.3326 48.8625 99.533 49.4942C100.019 51.0219 100.512 52.5495 101.01 54.0771C101.282 54.9097 101.554 55.7429 101.826 56.5766C103.506 61.7257 105.197 66.8847 106.707 72.0996ZM118.507 41.7585L112.39 46.065L103.051 52.6425L102.697 51.5564L101.568 48.0623L110.523 41.7585L110.912 41.4847L114.116 39.2306L118.543 36.1134L118.573 36.0929L118.58 36.1134L119.588 39.2306L119.773 39.8057L120.054 40.6723L118.507 41.7585Z" fill="url(#paint9_radial_148_510)"/>
<path d="M71.4219 69.2764L72.6208 68.4329L74.8056 66.8961L75.749 66.2312" fill="url(#paint10_linear_148_510)"/>
<path d="M79.2255 69.3901L78.7852 69.6995L76.6005 71.2363L74.8984 72.4345" fill="url(#paint11_linear_148_510)"/>
<path d="M62.7273 57.1721L62.4364 58.1881L61.3516 61.9782" fill="url(#paint12_linear_148_510)"/>
<path fill-rule="evenodd" clip-rule="evenodd" d="M106.534 123.469C106.534 125.729 104.757 127.425 102.378 127.425C99.9981 127.425 98.2227 125.727 98.2227 123.469C98.2227 121.211 99.9981 119.555 102.378 119.555C104.757 119.555 106.534 121.235 106.534 123.469ZM100.284 123.48C100.284 124.737 101.259 125.707 102.403 125.707C103.548 125.707 104.475 124.737 104.475 123.48C104.475 122.223 103.554 121.276 102.403 121.276C102.12 121.279 101.839 121.339 101.579 121.452C101.318 121.564 101.083 121.728 100.886 121.933C100.688 122.138 100.534 122.38 100.431 122.646C100.327 122.911 100.278 123.195 100.284 123.48ZM41.0182 121.22L41.0289 119.612H35.2832V127.339H37.2902V124.549H40.7322V122.94H37.2902V121.22H41.0182ZM28.5989 125.971H31.9288L32.4631 127.34H34.6018L31.3779 119.613H29.3012L26 127.34H28.0615L28.5989 125.971ZM30.2775 121.672L31.337 124.428H29.2028L30.2775 121.672ZM47.6853 119.612L47.6747 121.22H43.9406V122.94H47.3826V124.549H43.9406V127.339H41.9336V119.612H47.6853ZM50.6018 127.339V119.612H48.5947V127.339H50.6018ZM54.0998 119.612V125.619H57.3556V127.339H52.0928V119.612H54.0998ZM60.2717 127.339V119.612H58.2646V127.339H60.2717ZM66.8836 125.971H63.5612L63.0239 127.34H60.9639L64.2635 119.613H66.3251L69.549 127.34H67.4103L66.8836 125.971ZM66.2918 124.428L65.2323 121.672L64.1576 124.428H66.2918ZM75.3358 121.276V119.612H68.7471V121.276H71.0326V127.339H73.0336V121.276H75.3358ZM82.2129 119.612V121.22H78.1549V122.664H81.8179V124.263L78.1549 124.274V125.729H82.3219V127.339H76.1494V119.612H82.2129ZM89.6904 125.199L88.2328 119.612H86.0684L88.5915 127.339H90.6591L92.085 122.124L93.4669 127.339H95.539L98.0713 119.612H96.0097L94.5627 125.199L93.1051 119.612H91.1374L89.6904 125.199ZM111.027 125.199L112.146 127.339H114.422L112.822 124.814C113.702 124.352 114.185 123.492 114.185 122.323C114.185 120.604 113.022 119.612 110.983 119.612H107.529V127.339H109.536V125.199H111.027ZM110.992 123.591H109.536L109.535 121.22H110.992C111.804 121.22 112.276 121.628 112.276 122.389C112.276 123.172 111.804 123.591 110.992 123.591ZM117.476 119.612V125.619H120.732V127.339H115.469V119.612H117.476ZM124.877 127.339C127.367 127.339 129.044 125.773 129.044 123.469C129.044 121.176 127.388 119.612 124.954 119.612H121.643V127.339H124.877ZM124.91 121.254C126.127 121.254 126.993 122.157 126.993 123.492C126.993 124.814 126.171 125.707 125.012 125.707H123.65V121.254H124.91Z" fill="url(#paint13_radial_148_510)"/>
<defs>
<linearGradient id="paint0_linear_148_510" x1="50.8695" y1="161.191" x2="131.869" y2="69.4162" gradientUnits="userSpaceOnUse">
<stop stop-color="#21C1D9"/>
<stop offset="1" stop-color="#0F77BE"/>
</linearGradient>
<linearGradient id="paint1_linear_148_510" x1="44.5292" y1="155.422" x2="125.529" y2="63.6466" gradientUnits="userSpaceOnUse">
<stop stop-color="#21C1D9"/>
<stop offset="1" stop-color="#0F77BE"/>
</linearGradient>
<linearGradient id="paint2_linear_148_510" x1="47.7892" y1="158.302" x2="128.789" y2="66.5274" gradientUnits="userSpaceOnUse">
<stop stop-color="#21C1D9"/>
<stop offset="1" stop-color="#0F77BE"/>
</linearGradient>
<linearGradient id="paint3_linear_148_510" x1="4.8585" y1="120.41" x2="85.8582" y2="28.6354" gradientUnits="userSpaceOnUse">
<stop stop-color="#21C1D9"/>
<stop offset="1" stop-color="#0F77BE"/>
</linearGradient>
<linearGradient id="paint4_linear_148_510" x1="13.2478" y1="127.817" x2="94.2475" y2="36.0413" gradientUnits="userSpaceOnUse">
<stop stop-color="#21C1D9"/>
<stop offset="1" stop-color="#0F77BE"/>
</linearGradient>
<linearGradient id="paint5_linear_148_510" x1="24.7906" y1="138.001" x2="105.791" y2="46.2258" gradientUnits="userSpaceOnUse">
<stop stop-color="#21C1D9"/>
<stop offset="1" stop-color="#0F77BE"/>
</linearGradient>
<linearGradient id="paint6_linear_148_510" x1="38.276" y1="149.906" x2="119.277" y2="58.1311" gradientUnits="userSpaceOnUse">
<stop stop-color="#21C1D9"/>
<stop offset="1" stop-color="#0F77BE"/>
</linearGradient>
<linearGradient id="paint7_linear_148_510" x1="59.8625" y1="168.953" x2="140.862" y2="77.1784" gradientUnits="userSpaceOnUse">
<stop stop-color="#21C1D9"/>
<stop offset="1" stop-color="#0F77BE"/>
</linearGradient>
<linearGradient id="paint8_linear_148_510" x1="75.2572" y1="182.547" x2="156.258" y2="90.7718" gradientUnits="userSpaceOnUse">
<stop stop-color="#21C1D9"/>
<stop offset="1" stop-color="#0F77BE"/>
</linearGradient>
<radialGradient id="paint9_radial_148_510" cx="0" cy="0" r="1" gradientUnits="userSpaceOnUse" gradientTransform="translate(35.4883 -65.1294) rotate(72.829) scale(302.495 40084.9)">
<stop offset="0.0824821" stop-color="#217CD9"/>
<stop offset="0.414408" stop-color="#218FD9" stop-opacity="0.91"/>
<stop offset="1" stop-color="#21C1D9"/>
</radialGradient>
<linearGradient id="paint10_linear_148_510" x1="14.8398" y1="135.023" x2="95.8395" y2="43.2474" gradientUnits="userSpaceOnUse">
<stop stop-color="#21C1D9"/>
<stop offset="1" stop-color="#0F77BE"/>
</linearGradient>
<linearGradient id="paint11_linear_148_510" x1="18.3597" y1="138.131" x2="99.3594" y2="46.3556" gradientUnits="userSpaceOnUse">
<stop stop-color="#21C1D9"/>
<stop offset="1" stop-color="#0F77BE"/>
</linearGradient>
<linearGradient id="paint12_linear_148_510" x1="4.28591" y1="125.707" x2="85.2865" y2="33.9314" gradientUnits="userSpaceOnUse">
<stop stop-color="#21C1D9"/>
<stop offset="1" stop-color="#0F77BE"/>
</linearGradient>
<radialGradient id="paint13_radial_148_510" cx="0" cy="0" r="1" gradientUnits="userSpaceOnUse" gradientTransform="translate(27.5457 113.16) rotate(14.6827) scale(107.122 12339.3)">
<stop offset="0.0824821" stop-color="#217CD9"/>
<stop offset="0.414408" stop-color="#218FD9" stop-opacity="0.91"/>
<stop offset="1" stop-color="#21C1D9"/>
</radialGradient>
</defs>
</svg>
