<svg width="32" height="32" viewBox="0 0 32 32" fill="none" xmlns="http://www.w3.org/2000/svg">
<g id="Frame" clip-path="url(#clip0_174_704)">
<g id="Group">
<g id="Group_2">
<path id="Vector" d="M16 31.9998C24.8366 31.9998 32 24.8363 32 15.9998C32 7.16323 24.8366 -0.000213623 16 -0.000213623C7.16344 -0.000213623 0 7.16323 0 15.9998C0 24.8363 7.16344 31.9998 16 31.9998Z" fill="black"/>
<g id="Group_3">
<path id="Vector_2" d="M25.5584 17.2871V23.8835H21.7339V17.7291C21.7339 16.1839 21.1818 15.1286 19.797 15.1286C18.7403 15.1286 18.1126 15.839 17.8353 16.527C17.7347 16.7728 17.7087 17.1142 17.7087 17.4591V23.8832H13.884C13.884 23.8832 13.9353 13.4598 13.884 12.3808H17.709V14.0108C17.7013 14.0236 17.6904 14.0362 17.6836 14.0484H17.709V14.0108C18.2172 13.2287 19.1236 12.1107 21.1558 12.1107C23.672 12.1107 25.5584 13.7547 25.5584 17.2871ZM9.88296 6.83621C8.57468 6.83621 7.71875 7.695 7.71875 8.82331C7.71875 9.92766 8.54987 10.8113 9.83276 10.8113H9.85758C11.1915 10.8113 12.0209 9.92766 12.0209 8.82331C11.9956 7.695 11.1915 6.83621 9.88296 6.83621ZM7.94607 23.8835H11.7694V12.3808H7.94607V23.8835Z" fill="#F1F2F2"/>
</g>
</g>
</g>
</g>
<defs>
<clipPath id="clip0_174_704">
<rect width="32" height="32" fill="white"/>
</clipPath>
</defs>
</svg>
