<svg width="18" height="18" viewBox="0 0 18 18" fill="none" xmlns="http://www.w3.org/2000/svg">
<g id="skype-1">
<g id="Group">
<path id="Vector" d="M5.76321 10.2343C8.23422 10.2343 10.2374 8.23111 10.2374 5.7601C10.2374 3.28909 8.23422 1.28595 5.76321 1.28595C3.29221 1.28595 1.28906 3.28909 1.28906 5.7601C1.28906 8.23111 3.29221 10.2343 5.76321 10.2343Z" fill="#28A8EA"/>
<path id="Vector_2" d="M12.2398 16.7141C14.7108 16.7141 16.7139 14.711 16.7139 12.24C16.7139 9.76895 14.7108 7.76581 12.2398 7.76581C9.76877 7.76581 7.76562 9.76895 7.76562 12.24C7.76562 14.711 9.76877 16.7141 12.2398 16.7141Z" fill="#28A8EA"/>
<path id="Vector_3" d="M8.99924 16.4055C13.0892 16.4055 16.4047 13.0899 16.4047 9C16.4047 4.91006 13.0892 1.59451 8.99924 1.59451C4.9093 1.59451 1.59375 4.91006 1.59375 9C1.59375 13.0899 4.9093 16.4055 8.99924 16.4055Z" fill="#28A8EA"/>
</g>
<g id="Group_2">
<path id="Vector_4" fill-rule="evenodd" clip-rule="evenodd" d="M7.08126 8.85936C6.79178 8.66863 6.55028 8.41361 6.37558 8.11419C6.20675 7.79807 6.12336 7.44336 6.13366 7.08513C6.12081 6.63047 6.27592 6.187 6.56935 5.83947C6.87432 5.49041 7.26633 5.22839 7.70548 5.08009C8.18307 4.91145 8.68626 4.82679 9.19275 4.82985C9.52427 4.8267 9.85545 4.85209 10.1826 4.90576C10.4167 4.94191 10.6465 5.00124 10.8689 5.08287C11.073 5.15207 11.2572 5.26982 11.4058 5.42599C11.5153 5.55445 11.5744 5.71846 11.5718 5.88729C11.5757 5.97495 11.5623 6.06252 11.5324 6.145C11.5025 6.22749 11.4566 6.30328 11.3974 6.36803C11.3413 6.42772 11.2732 6.47486 11.1976 6.50634C11.122 6.53782 11.0405 6.55294 10.9586 6.5507C10.846 6.54988 10.7348 6.52494 10.6325 6.47757C10.3808 6.36494 10.1215 6.27008 9.85647 6.1937C9.61242 6.12948 9.36085 6.09834 9.10851 6.10113C8.77996 6.08892 8.45488 6.17185 8.17233 6.33995C8.05298 6.41243 7.95529 6.51565 7.8895 6.63882C7.82371 6.76199 7.79223 6.90058 7.79836 7.04008C7.7965 7.22309 7.86601 7.39962 7.99213 7.53224C8.14217 7.68779 8.31943 7.81454 8.51515 7.90621C8.73464 8.01503 9.06171 8.15934 9.49637 8.33913C9.54461 8.35442 9.59165 8.3733 9.63708 8.39559C10.0615 8.5634 10.4684 8.77247 10.8519 9.01981C11.1548 9.21735 11.4103 9.47953 11.5998 9.78752C11.7864 10.1111 11.8799 10.4799 11.8698 10.8533C11.8855 11.3105 11.7544 11.7607 11.4959 12.1381C11.2325 12.4956 10.8682 12.766 10.4498 12.9145C9.94576 13.0945 9.41314 13.1811 8.87802 13.1703C8.14259 13.1962 7.41063 13.0579 6.73536 12.7655C6.56264 12.6885 6.41121 12.5708 6.29412 12.4223C6.19699 12.2864 6.14664 12.1225 6.15063 11.9555C6.14577 11.8674 6.16009 11.7793 6.19258 11.6972C6.22508 11.6152 6.27498 11.5412 6.33886 11.4803C6.47303 11.3628 6.64725 11.3013 6.82546 11.3087C7.02367 11.3115 7.21833 11.3617 7.39321 11.455C7.61065 11.5638 7.78221 11.6454 7.9079 11.6997C8.05148 11.7597 8.20019 11.8067 8.35223 11.8401C8.53966 11.8813 8.73116 11.9012 8.92307 11.8993C9.26226 11.9233 9.59974 11.8332 9.88177 11.6432C9.98739 11.5606 10.0718 11.454 10.128 11.3322C10.1843 11.2105 10.2107 11.0771 10.2051 10.9431C10.2055 10.753 10.1331 10.5699 10.0027 10.4315C9.83039 10.2539 9.62872 10.1073 9.40658 9.99827C9.1441 9.85962 8.77485 9.69094 8.29884 9.49222C7.87287 9.32257 7.46497 9.11066 7.08126 8.85967" fill="white"/>
<path id="Vector_5" opacity="0.1" fill-rule="evenodd" clip-rule="evenodd" d="M7.16034 1.51121C6.9647 1.44571 6.76466 1.39416 6.56173 1.35693C5.34339 1.74793 4.23586 2.42387 3.33108 3.32864C2.42631 4.23342 1.75037 5.34094 1.35938 6.55929C1.3966 6.76222 1.44816 6.96226 1.51366 7.1579C1.56836 7.33503 1.6375 7.50738 1.72039 7.6732C1.9884 6.19219 2.70228 4.82833 3.76653 3.76408C4.83077 2.69984 6.19463 1.98596 7.67564 1.71795C7.50982 1.63507 7.33747 1.56593 7.16034 1.51121Z" fill="black"/>
<path id="Vector_6" opacity="0.1" fill-rule="evenodd" clip-rule="evenodd" d="M7.16231 1.5112C5.79579 1.84827 4.54741 2.5525 3.55217 3.54774C2.55693 4.54298 1.8527 5.79136 1.51562 7.15789C1.57033 7.33502 1.63947 7.50736 1.72236 7.67318C1.99037 6.19217 2.70425 4.82831 3.76849 3.76407C4.83274 2.69982 6.1966 1.98595 7.67761 1.71794C7.51178 1.63505 7.33944 1.56591 7.16231 1.5112ZM16.4932 10.8421C16.4385 10.665 16.3694 10.4926 16.2865 10.3268C16.0185 11.8078 15.3046 13.1717 14.2404 14.2359C13.1761 15.3002 11.8123 16.0141 10.3312 16.2821C10.4971 16.365 10.6694 16.4341 10.8465 16.4888C11.0422 16.5543 11.2422 16.6059 11.4452 16.6431C12.6635 16.2521 13.771 15.5762 14.6758 14.6714C15.5806 13.7666 16.2565 12.6591 16.6475 11.4407C16.6103 11.2378 16.5587 11.0378 16.4932 10.8421Z" fill="black"/>
<path id="Vector_7" opacity="0.1" fill-rule="evenodd" clip-rule="evenodd" d="M16.2834 10.3268C16.0154 11.8079 15.3015 13.1717 14.2372 14.236C13.173 15.3002 11.8091 16.0141 10.3281 16.2821C10.4939 16.365 10.6663 16.4341 10.8434 16.4888C12.2099 16.1518 13.4583 15.4475 14.4536 14.4523C15.4488 13.457 16.153 12.2087 16.4901 10.8421C16.4354 10.665 16.3663 10.4927 16.2834 10.3268Z" fill="black"/>
</g>
</g>
</svg>
