<svg width="32" height="32" viewBox="0 0 32 32" fill="none" xmlns="http://www.w3.org/2000/svg">
<g id="Frame" clip-path="url(#clip0_174_698)">
<g id="Group">
<g id="Group_2">
<path id="Vector" d="M15.9999 31.9997C24.8363 31.9997 31.9997 24.8363 31.9997 15.9999C31.9997 7.16338 24.8363 0 15.9999 0C7.16338 0 0 7.16338 0 15.9999C0 24.8363 7.16338 31.9997 15.9999 31.9997Z" fill="black"/>
<g id="Group_3">
<path id="Vector_2" d="M25.7972 11.4985C25.1115 11.8025 24.374 12.0082 23.6005 12.1C24.3902 11.6268 24.9963 10.8782 25.2824 9.98459C24.5434 10.423 23.7245 10.741 22.8538 10.9124C22.1562 10.1694 21.1622 9.70508 20.0615 9.70508C17.9498 9.70508 16.2371 11.4178 16.2371 13.5295C16.2371 13.8293 16.2711 14.121 16.3367 14.4011C13.1583 14.2417 10.3401 12.7192 8.45368 10.4047C8.12455 10.9694 7.93574 11.6268 7.93574 12.3276C7.93574 13.6541 8.6114 14.8252 9.63703 15.5109C9.01042 15.4912 8.42031 15.3192 7.90493 15.032C7.90465 15.0483 7.90465 15.0645 7.90465 15.0805C7.90465 16.9335 9.22347 18.4791 10.9727 18.8302C10.6521 18.918 10.3136 18.9645 9.96531 18.9645C9.71831 18.9645 9.47902 18.9408 9.24572 18.8963C9.73229 20.4154 11.1444 21.5212 12.8183 21.5522C11.5092 22.5781 9.86035 23.1894 8.06807 23.1894C7.76004 23.1894 7.45487 23.1714 7.15625 23.1357C8.84785 24.2213 10.8586 24.8541 13.0182 24.8541C20.0527 24.8541 23.8997 19.0267 23.8997 13.9724C23.8997 13.8067 23.8959 13.6416 23.8885 13.4779C24.6364 12.9388 25.2846 12.2654 25.7972 11.4985Z" fill="#F1F2F2"/>
</g>
</g>
</g>
</g>
<defs>
<clipPath id="clip0_174_698">
<rect width="32" height="32" fill="white"/>
</clipPath>
</defs>
</svg>
