<svg width="32" height="32" viewBox="0 0 32 32" fill="none" xmlns="http://www.w3.org/2000/svg">
<g id="Frame" clip-path="url(#clip0_174_710)">
<g id="Group">
<g id="Artboard">
<path id="Oval" d="M16 32C24.8366 32 32 24.8366 32 16C32 7.16344 24.8366 0 16 0C7.16344 0 0 7.16344 0 16C0 24.8366 7.16344 32 16 32Z" fill="black"/>
<path id="Path-3" fill-rule="evenodd" clip-rule="evenodd" d="M7.2414 15.8311C11.9057 13.7989 15.016 12.4592 16.5722 11.8119C21.0156 9.96382 21.9389 9.64276 22.5407 9.63213C22.673 9.62982 22.969 9.66263 23.1607 9.81819C23.445 10.0489 23.4467 10.5498 23.4151 10.8813C23.1743 13.4113 22.1324 19.5509 21.6023 22.3845C21.378 23.5835 20.9364 23.9856 20.5089 24.0249C19.5798 24.1104 18.8742 23.4108 17.9743 22.8209C16.5661 21.8978 15.7705 21.3232 14.4036 20.4224C12.8239 19.3814 13.848 18.8093 14.7482 17.8743C14.9838 17.6296 19.0777 13.9059 19.1569 13.5681C19.1668 13.5258 19.176 13.3683 19.0825 13.2852C18.9889 13.2021 18.8508 13.2304 18.7512 13.2531C18.61 13.2851 16.3603 14.7721 12.0023 17.7138C11.3638 18.1523 10.7854 18.3659 10.2672 18.3548C9.6959 18.3424 8.59703 18.0318 7.78009 17.7662C6.77809 17.4405 5.98171 17.2683 6.05109 16.7151C6.08721 16.4269 6.48396 16.1323 7.2414 15.8311Z" fill="white"/>
</g>
</g>
</g>
<defs>
<clipPath id="clip0_174_710">
<rect width="32" height="32" fill="white"/>
</clipPath>
</defs>
</svg>
