<svg width="22" height="21" viewBox="0 0 22 21" fill="none" xmlns="http://www.w3.org/2000/svg">
<path id="Vector" d="M21.1881 9.28365H21.1867C21.1858 9.2814 21.1851 9.27908 21.1847 9.27671C21.1783 9.25567 21.1722 9.23464 21.1661 9.2136L20.8443 8.19241V8.1903L20.7041 7.74628L20.7029 7.74165L20.3607 6.65819L20.3585 6.65146L20.1732 6.06251L20.1708 6.05473H14.7622L14.743 5.99373L13.9336 3.42275L13.2486 1.25309L13.0731 0.696533H9.12847L8.9634 1.25309L8.31987 3.42275L7.53922 6.05515H1.98797L1.84392 6.54166L1.81107 6.65209L1.51787 7.64069L1.48726 7.7406L1.3834 8.09102L1.35423 8.18925L1.05878 9.18752L1.03022 9.28365L0.880859 9.78678L1.01267 9.88186L1.39503 10.1578L3.21485 11.4716L5.17891 12.8891L5.45294 13.0866L4.65127 15.7924L4.09486 17.6686L4.05242 17.8119L3.8745 18.409L3.84104 18.5224L3.88185 18.5521L3.91878 18.579L4.13118 18.7323H4.13322C4.20361 18.7786 4.27421 18.8236 4.3444 18.8682L4.34052 18.8821L4.80654 19.2186L5.18606 19.4921L5.254 19.5411L5.50007 19.7186L5.62882 19.8114L6.10769 20.1572L6.12361 20.1687H6.12483L6.53964 20.468L6.61146 20.52L6.75286 20.4178L7.20868 20.089L7.26989 20.045L8.9075 18.8631L11.1825 17.221L15.2516 20.1584L15.3194 20.207L15.6807 20.4678L15.7026 20.4636L15.9539 20.284L16.1951 20.1113C16.4243 19.9477 16.6473 19.7882 16.8639 19.633C16.9503 19.5714 17.036 19.5104 17.121 19.4492C17.16 19.4216 17.199 19.3938 17.2375 19.3661L17.5028 19.1768L18.1461 18.7203C18.2413 18.6522 18.337 18.5838 18.433 18.5152L18.6317 18.3733C18.5734 18.1967 18.5164 18.0207 18.4607 17.8453C18.455 17.8279 18.4495 17.8106 18.4442 17.7931C18.3193 17.3977 18.2013 17.0051 18.0902 16.6152L17.8911 15.9842C17.7758 15.6414 17.6558 15.3006 17.566 14.9525L17.2771 14.0361V14.035C17.2392 13.9271 17.2035 13.8186 17.1751 13.7084L16.9682 13.0517L17.1194 12.9425L19.1233 11.496L20.8908 10.2205L21.356 9.88396L21.3742 9.87113L21.1881 9.28365ZM19.7652 6.65125L19.8774 7.00714L20.1088 7.74123L20.1479 7.86554L20.2202 8.09481L20.0882 8.18988L18.573 9.28365L18.4522 9.37073L17.7442 9.88186L16.2975 10.9262L15.9684 9.88186L15.9548 9.83852L15.9772 9.82233L16.7234 9.28365L18.1096 8.28285L18.08 8.18988L18.0392 8.06263L17.9517 7.78267L17.9145 7.74186H10.9207L11.1484 6.9737L11.2439 6.65188L19.7652 6.65125ZM14.0968 14.3926L13.7552 13.3087L13.6144 12.8626L13.2717 11.7747L13.0842 11.1799L12.6889 9.92266L12.6763 9.88186H13.7907L13.9931 10.5238L14.1806 11.1191L14.5234 12.2063L14.6642 12.6524L15.006 13.7365L15.1925 14.3293L15.3841 14.9374L15.4383 15.109L15.6475 15.7756L15.4065 15.6016L14.4186 14.8886L14.2035 14.7333L14.0968 14.3926ZM9.37862 15.9205L8.25437 16.732L8.65102 15.3953L8.95708 14.8892L9.87872 14.2239L10.2582 13.9505L11.1829 13.2828L11.6891 12.9173L12.7452 12.1552L12.7746 12.1342L13.1174 13.2212L12.6138 13.5847L12.1086 13.9498L11.4302 14.4395L11.427 14.442L11.1876 14.6204L11.1837 14.6174L10.8042 14.8909L9.8826 15.5562L9.87749 15.5524L9.37311 15.9163L9.37862 15.9205ZM9.8071 11.4895C9.82363 11.4371 9.83975 11.3843 9.85607 11.334L10.2866 9.8827H12.0662L12.0809 9.92939L12.0884 9.95316L12.5869 11.5387L11.4647 12.3496L11.1842 12.5521L10.5108 12.0664L9.79159 11.5477L9.80812 11.492C9.80739 11.4913 9.80677 11.4904 9.80628 11.4895H9.8071ZM10.184 8.18988L9.85954 9.28365L9.68203 9.88186L9.32231 11.094L9.29456 11.1879L8.64307 10.7175L8.38373 10.5305L8.36088 10.5141C8.42889 10.3038 8.49657 10.093 8.5639 9.88186C8.61654 9.71821 8.66911 9.5545 8.72162 9.39071L8.75365 9.28365H8.75631C8.87342 8.91906 8.99061 8.55447 9.10786 8.18988C9.15561 8.04054 9.20356 7.89078 9.25171 7.7406C9.36801 7.37825 9.48479 7.01493 9.60204 6.65062C9.6657 6.45206 9.72957 6.25336 9.79363 6.05451L10.308 4.45362L10.8195 6.04337L10.8163 6.05451L10.6394 6.65062L10.3162 7.7406L10.184 8.18988ZM9.11541 11.7896L9.61347 12.1489L10.5669 12.8365L10.6788 12.9173L10.1705 13.2839L9.81894 13.5378L9.75446 13.5845L9.6908 13.5382C9.67703 13.5353 9.66398 13.5296 9.65244 13.5214L9.28681 13.2515L9.20233 13.1884L9.19988 13.1865L8.78957 12.8903L7.87874 12.233L7.50372 11.9623L6.59004 11.3016L6.09015 10.9407L4.62312 9.88186H6.47292L6.9163 10.2016L7.82998 10.861L8.205 11.1317L9.11541 11.7896ZM10.4633 9.28365L10.7877 8.18988H17.2267L15.7672 9.24368L15.7117 9.28365H10.4633ZM12.6408 1.25309L12.7461 1.58669L13.3247 3.42275L14.1543 6.05515H13.0425L13.0364 6.03537L12.3765 3.94144L12.24 3.50709L12.2378 3.50057C12.2294 3.47449 12.2209 3.44883 12.2123 3.42275L12.2068 3.40634V3.40424L11.8954 2.41564L11.5463 1.30715L11.5292 1.25309H12.6408ZM7.64593 7.7406L7.96913 6.65062L8.14603 6.05451L8.51024 4.82634L8.92668 3.42211L9.46146 1.61971L9.57021 1.25288H11.0711L11.1042 1.35679L11.6736 3.16382L11.7553 3.42253L11.9854 4.15241L12.5851 6.05493H11.4696L11.4492 5.98889L11.4449 5.97543L11.1336 4.98683L10.6404 3.42211H10.0364L10.0332 3.43263L9.95482 3.69934L9.91626 3.82912L9.61204 4.85263L9.25538 6.05515L9.10358 6.5669L9.07848 6.65104L8.75549 7.7406L8.62225 8.18925L8.42454 8.85666L8.29783 9.28365L8.12032 9.88186L8.0083 10.2605L7.48454 9.88186L7.09442 9.60021L7.12543 9.49504L7.18848 9.28281L7.5129 8.18904L7.64593 7.7406ZM2.35809 6.91165L2.43542 6.65125H7.36232L7.10564 7.51701L7.03912 7.7406H2.11202L2.35809 6.91165ZM5.49925 18.7203L5.46599 18.8324L5.40478 18.7887L5.28624 18.7031L4.5517 18.173L4.59108 18.0409L4.86653 17.1121L5.15137 16.1542L5.92671 13.5378L5.95303 13.449L6.07546 13.5378L6.60065 13.9164L6.60249 13.9179L6.86631 14.1082L6.27766 16.0932L6.06383 16.813L6.00261 17.022L5.49925 18.7203ZM11.1809 16.4939L10.6767 16.8578L10.6796 16.8597L8.40414 18.5018L7.54555 19.1221L6.77612 19.6774L6.70614 19.7279L5.84081 19.1034L5.87162 18.9997L6.07811 18.3028L6.43946 17.0841L6.58229 16.6047L6.85794 15.6757L7.11584 14.8061L7.15665 14.6675L7.40701 13.7706L7.04463 13.5092L6.13116 12.8495L5.63126 12.4882L3.79289 11.1605L3.39297 10.8721L2.02082 9.88186L1.57316 9.55877L1.65477 9.28365L1.67253 9.22328L1.89268 8.48183L1.89819 8.46332L1.97981 8.18988H6.90609L6.59473 9.23969L6.58167 9.28365H3.86409L3.85165 9.32572L3.79656 9.51166L3.76534 9.61683L3.72045 9.76785L4.25932 10.1675L4.26829 10.1742L5.05792 10.7432L5.0622 10.7464L5.95569 11.3923L6.45537 11.7528L7.15053 12.2547L7.33416 12.3868L7.37007 12.4127L7.7451 12.6836L8.65551 13.3409L9.15357 13.7004L9.37352 13.8592L9.23702 13.9576L9.03298 14.1048L8.45107 14.5255H8.44964L8.15195 15.0362L7.98872 15.589L7.48597 17.2873L7.45312 17.3986L7.76734 17.632L8.0487 17.4288L9.48227 16.3938L9.75895 16.1944L10.2631 15.8305L10.4808 15.6733L11.1837 15.1656L11.5631 14.8921L12.488 14.2245L12.9938 13.8594L13.259 13.6684L13.4149 14.1631L13.6006 14.7521L13.5873 14.7617L13.41 14.8898L12.4849 15.5568L12.1056 15.8303L11.1839 16.4956L11.1809 16.4939ZM16.5169 19.2493L15.7925 19.772L15.7568 19.7977L15.0235 19.2672L11.906 17.0166L11.7767 16.923L11.6877 16.8588L12.6094 16.1937L14.4808 17.5445L15.2708 18.1148L16.6787 19.1309L16.5169 19.2493ZM17.6234 17.0618L17.6801 17.2412L17.978 18.1877L17.9798 18.1934L17.0741 18.8465L17.058 18.8581L17.0366 18.8425L16.4912 18.4492L15.0472 17.4072L14.2574 16.8372L13.0089 15.9361L12.9885 15.9213L13.1121 15.8322L13.4743 15.5709L13.786 15.3456L13.9125 15.2543L14.1819 15.4487L14.3294 15.5553L14.5012 15.6792L15.8709 16.6678C15.8933 16.6796 15.916 16.6914 15.939 16.7027L15.945 16.7213L16.0782 16.8174L16.3639 16.6014L16.3082 16.4245L16.2384 16.2034L15.5659 14.0605L15.3792 13.4675L15.0376 12.3836L14.8968 11.9373L14.554 10.8498L14.3665 10.2546L14.2678 9.94138L14.2531 9.90878H14.2576L14.249 9.88186H15.3608L15.3692 9.90878H15.4304C15.4547 9.99417 15.4791 10.0795 15.5034 10.1648C15.6091 10.5317 15.7179 10.8981 15.8299 11.264C15.8756 11.4135 15.9216 11.563 15.9678 11.7124C16.08 12.0739 16.1937 12.4354 16.3088 12.797C16.3715 12.994 16.4342 13.1911 16.4969 13.3884C16.8848 14.6069 17.2749 15.8277 17.6234 17.0618ZM20.3465 9.88186L18.9347 10.901L16.7797 12.4575L16.6981 12.2004L16.4375 11.3736L18.504 9.88186L18.5938 9.81707L19.333 9.28365L20.3546 8.54599L20.3616 8.54115L20.3632 8.54599L20.5958 9.28365L20.6386 9.41974L20.7033 9.62482L20.3465 9.88186Z" fill="url(#paint0_radial_302_1155)"/>
<defs>
<radialGradient id="paint0_radial_302_1155" cx="0" cy="0" r="1" gradientUnits="userSpaceOnUse" gradientTransform="translate(1.18827 -15.4122) rotate(73.2309) scale(71.4298 9270.17)">
<stop offset="0.0824821" stop-color="#217CD9"/>
<stop offset="0.414408" stop-color="#218FD9" stop-opacity="0.91"/>
<stop offset="1" stop-color="#21C1D9"/>
</radialGradient>
</defs>
</svg>
