<svg width="20" height="20" viewBox="0 0 20 20" fill="none" xmlns="http://www.w3.org/2000/svg">
<g id="Frame">
<path id="Vector" fill-rule="evenodd" clip-rule="evenodd" d="M9.62955 17.69C11.6644 17.69 13.616 16.8816 15.0548 15.4428C16.4937 14.0039 17.3021 12.0524 17.3021 10.0175C17.3021 7.98261 16.4937 6.03107 15.0548 4.5922C13.616 3.15332 11.6644 2.34497 9.62955 2.34497C7.59467 2.34497 5.64313 3.15332 4.20426 4.5922C2.76538 6.03107 1.95703 7.98261 1.95703 10.0175C1.95703 12.0524 2.76538 14.0039 4.20426 15.4428C5.64313 16.8816 7.59467 17.69 9.62955 17.69ZM13.1848 9.33943L10.3076 6.46223C10.1267 6.28753 9.88446 6.19086 9.633 6.19305C9.38153 6.19523 9.14099 6.2961 8.96317 6.47392C8.78535 6.65173 8.68449 6.89228 8.6823 7.14374C8.68012 7.39521 8.77679 7.63747 8.95149 7.81835L10.1916 9.05842H6.75235C6.49799 9.05842 6.25405 9.15946 6.07419 9.33932C5.89433 9.51918 5.79329 9.76313 5.79329 10.0175C5.79329 10.2718 5.89433 10.5158 6.07419 10.6956C6.25405 10.8755 6.49799 10.9765 6.75235 10.9765H10.1916L8.95149 12.2166C8.85989 12.3051 8.78682 12.4109 8.73656 12.5279C8.6863 12.6449 8.65984 12.7708 8.65873 12.8981C8.65763 13.0255 8.68189 13.1518 8.73011 13.2696C8.77834 13.3875 8.84955 13.4946 8.9396 13.5846C9.02965 13.6747 9.13673 13.7459 9.2546 13.7941C9.37246 13.8423 9.49875 13.8666 9.62609 13.8655C9.75344 13.8644 9.87929 13.8379 9.9963 13.7877C10.1133 13.7374 10.2191 13.6643 10.3076 13.5727L13.1848 10.6955C13.3646 10.5157 13.4656 10.2718 13.4656 10.0175C13.4656 9.76318 13.3646 9.51928 13.1848 9.33943Z" fill="white"/>
</g>
</svg>
